<?xml version="1.0" encoding="utf-8" ?>
<svg xmlns="http://www.w3.org/2000/svg" xmlns:xlink="http://www.w3.org/1999/xlink" width="140" height="140">
	<clipPath id="cl_8">
		<rect width="140" height="140"/>
	</clipPath>
	<g clip-path="url(#cl_8)">
		<path fill="#333" transform="translate(38 43)" d="M11.0215 5.50391Q11.5605 5.50391 12.1348 5.52734Q12.709 5.55078 13.1309 5.58594Q13.3535 5.59766 13.5117 5.63867Q13.6699 5.67969 13.7637 5.82031Q13.7637 5.82031 13.7695 5.82031Q13.7754 5.82031 13.7754 5.82617Q13.7754 5.83203 13.7812 5.83203Q13.7871 5.83203 13.7871 5.84375Q13.8105 5.85547 13.8223 5.87305Q13.834 5.89062 13.834 5.9375Q14.0098 6.32422 14.0098 8.02344Q14.0449 9.91016 13.916 12.7227Q13.7871 15.5352 13.3184 17.7383Q12.8145 19.7773 11.9473 20.6914Q11.0801 21.6055 10.0137 21.9336Q8.93555 22.2969 7.9043 22.3555Q6.87305 22.4141 6.26367 22.2383Q5.71289 22.0742 5.58398 21.7285Q5.45508 21.3828 5.45508 20.9023Q5.45508 20.8672 5.45508 20.8203Q5.44336 20.75 5.44336 20.668Q5.4082 20.1641 5.43164 19.6484Q5.45508 19.1328 5.66602 18.8164Q5.90039 18.5 6.375 18.4414Q6.84961 18.3828 7.43555 18.3828Q7.79883 18.3828 8.15625 18.3184Q8.51367 18.2539 8.82422 17.9258Q9.13477 17.5977 9.3457 16.8477Q8.94727 16.9297 8.54883 16.9414Q7.76367 17 7.04297 16.625Q6.32227 16.25 5.74805 14.8789Q5.24414 13.5078 4.88672 11.5625Q4.5293 9.61719 4.30664 8.08203Q4.27148 7.82422 4.23633 7.58984Q4.20117 7.39062 4.17773 7.21484Q4.06055 6.47656 4.03711 6.13672Q4.01367 5.79688 4.11914 5.68555Q4.22461 5.57422 4.50586 5.5625Q5.00977 5.51562 5.7832 5.50977Q6.55664 5.50391 7.0957 5.52734Q7.41211 5.52734 7.57031 5.64453Q7.72852 5.76172 7.81055 6.20703Q7.89258 6.65234 7.99805 7.63672Q8.12695 8.73828 8.2793 10.1445Q8.43164 11.4688 8.54297 12.459Q8.6543 13.4492 8.66602 13.4961Q8.67773 13.4375 8.84766 12.1367Q9.01758 10.8359 9.24023 9.11328Q9.46289 7.39062 9.62695 6.06641Q9.63867 5.99609 9.66211 5.93164Q9.68555 5.86719 9.74414 5.82031Q9.82617 5.63281 9.98438 5.57422Q10.1426 5.51562 10.3887 5.51562Q10.6582 5.50391 11.0215 5.50391ZM19.7168 4.8125Q20.877 4.77734 21.9082 5.71484Q22.6113 6.37109 23.1738 7.67773Q23.7363 8.98438 24.041 11.1523Q24.3223 13.4258 24.3398 16.0332Q24.3574 18.6406 24.2285 20.3281Q24.1582 21.3594 24.0469 21.8223Q23.9355 22.2852 23.7598 22.4023Q23.584 22.5195 23.3145 22.5078Q22.9043 22.543 22.3945 22.5371Q21.8848 22.5312 21.5098 22.4375Q21.2754 22.3906 21.1348 22.2324Q20.9941 22.0742 20.9121 21.6582Q20.8301 21.2422 20.7832 20.4336Q20.7598 20.1406 20.7363 19.7891Q19.541 19.9414 18.3457 19.9414Q18.3457 19.9648 18.334 19.9883Q18.334 20.1172 18.3223 20.2344Q18.2285 21.3242 18.0762 21.8105Q17.9238 22.2969 17.7188 22.4199Q17.5137 22.543 17.2441 22.5312Q16.8223 22.5547 16.3359 22.543Q15.8496 22.5312 15.498 22.5078Q15.2754 22.4961 15.1289 22.3906Q14.9824 22.2852 14.9062 21.8926Q14.8301 21.5 14.7949 20.6328Q14.748 19.2383 14.7773 17.0117Q14.8066 14.7852 14.9238 12.6523Q15.0293 10.6016 15.2812 9.10742Q15.5332 7.61328 16.0488 6.6875Q16.5879 5.78516 17.3555 5.375Q18.123 4.96484 18.9316 4.87109Q19.3301 4.80078 19.7168 4.8125ZM19.5176 8.26953Q19.4238 8.26953 19.3184 8.36328Q19.2012 8.43359 19.0898 8.67383Q18.9785 8.91406 18.873 9.51172Q18.7676 10.1094 18.6855 11.2812Q18.6035 12.9219 18.5449 15.207Q18.5098 16.1328 18.4863 17.0469Q19.5293 17.0469 20.6191 17.1875Q20.5488 15.2539 20.4434 13.4844Q20.2207 10.0742 19.9277 8.9375Q19.8223 8.55078 19.7227 8.39844Q19.623 8.24609 19.5176 8.26953ZM28.1777 5.53906Q29.4785 5.52734 30.7324 5.85547Q31.7988 6.13672 32.5781 6.72852Q33.3574 7.32031 33.8027 8.31641Q34.2598 9.35938 34.3887 10.6543Q34.5176 11.9492 34.377 13.0742Q34.2246 14.1523 33.8965 14.8789Q33.5684 15.6055 33.2402 16.0391Q32.6074 16.8594 32.2441 16.9648Q32.1738 17 32.1152 17.0234Q31.9863 17.0586 31.9336 17.1172Q31.8809 17.1758 31.9395 17.3398Q32.0332 17.5625 32.2852 17.873Q32.5371 18.1836 32.8535 18.3477Q33.1816 18.4766 33.4863 18.3887Q33.791 18.3008 34.002 18.1367Q34.1309 18.043 34.2246 17.9492Q34.3184 17.8555 34.4004 17.8086Q34.4824 17.7617 34.5762 17.8086Q34.8691 17.9961 35.3965 18.8047Q35.6777 19.1914 35.8652 19.6309Q36.0527 20.0703 35.9004 20.5156Q35.6895 20.9727 35.1211 21.3477Q34.5527 21.7227 33.8496 21.9102Q33.1582 22.1094 32.4844 22.0098Q31.8105 21.9102 31.2012 21.3828Q30.709 20.9141 30.2988 20.252Q29.8887 19.5898 29.5957 19.0156Q29.4785 18.8047 29.3848 18.6406Q28.8574 17.6328 28.9043 18.6641Q28.9043 19.1445 28.9395 19.8477Q28.998 20.7617 28.9863 21.4297Q28.9863 21.9688 28.834 22.1387Q28.6816 22.3086 28.2363 22.3203Q27.7559 22.3438 27.1113 22.3145Q26.4668 22.2852 26.0215 22.2383Q25.752 22.2031 25.623 22.1621Q25.4941 22.1211 25.459 22.0742Q25.4238 22.0273 25.4238 21.9688Q25.4238 21.9453 25.418 21.8867Q25.4121 21.8281 25.4121 21.6992Q25.4121 21.5117 25.4062 21.0137Q25.4004 20.5156 25.377 19.543Q25.3301 17.8086 25.2598 15.2949Q25.1895 12.7812 25.1309 10.8828Q25.1191 10.5781 25.1191 10.3203Q25.0605 8.92578 25.0605 8.29297Q25.0605 7.66016 25.1309 7.27344Q25.1895 6.80469 25.4648 6.38867Q25.7402 5.97266 26.4902 5.73828Q27.1816 5.55078 28.1777 5.53906ZM28.7871 8.90234Q28.6699 8.90234 28.5996 9.07812Q28.5293 9.25391 28.5059 9.75781Q28.4941 10.4844 28.541 11.5684Q28.5879 12.6523 28.6348 13.4141Q28.6465 13.6836 28.6523 13.8652Q28.6582 14.0469 28.6699 14.1582Q28.6816 14.2695 28.6816 14.334Q28.6816 14.3984 28.6816 14.4277Q28.6816 14.457 28.6816 14.457Q28.6816 14.4688 28.6816 14.4688Q28.6934 14.4922 28.6934 14.498Q28.6934 14.5039 28.6934 14.5156Q28.6934 14.5273 28.7051 14.5625Q28.7168 14.5859 28.7344 14.6152Q28.752 14.6445 28.8047 14.668Q28.8574 14.6914 28.9629 14.6797Q29.1152 14.6562 29.3672 14.498Q29.6191 14.3398 29.877 13.9531Q30.1348 13.543 30.3281 12.9512Q30.5215 12.3594 30.5332 11.7266Q30.5098 10.4609 29.959 9.69922Q29.7129 9.35938 29.4434 9.18945Q29.1738 9.01953 28.9629 8.94922Q28.8691 8.91406 28.7871 8.90234ZM36.4746 17.5625Q36.4863 16.0156 36.9316 15.0195Q37.2832 14.3398 37.7637 14.123Q38.2441 13.9062 38.6426 13.8711Q38.7598 13.8477 38.8535 13.8359Q39.1465 13.8008 39.2344 13.7715Q39.3223 13.7422 39.1348 13.7188Q39.0996 13.7188 39.0527 13.707Q38.7715 13.6953 38.2852 13.5371Q37.7988 13.3789 37.3535 12.875Q36.4043 11.6328 36.5684 9.18359Q36.6504 7.97656 37.1719 6.91602Q37.6934 5.85547 38.7949 5.41016Q39.8613 5.07031 41.1914 5.23438Q42.5215 5.39844 43.5293 5.63281Q43.7051 5.67969 43.8691 5.70312Q44.1152 5.76172 44.3027 5.79688Q44.6895 5.86719 44.877 5.92578Q45.0645 5.98438 45.1172 6.11328Q45.1699 6.24219 45.1699 6.5Q45.1816 6.95703 45.1758 7.67773Q45.1699 8.39844 45.1582 9.01953Q45.1582 9.13672 45.1582 9.24219Q45.1699 9.80469 45.0469 10.0449Q44.9238 10.2852 44.3848 10.3555Q43.834 10.4258 42.9902 10.4258Q41.9473 10.4258 41.2559 10.5547Q40.8809 10.6484 40.7754 10.8945Q40.6699 11.1406 40.7871 11.3633Q40.9043 11.5859 41.1973 11.6328Q41.9355 11.7266 43.0254 11.8086Q43.5996 11.8438 44.0215 11.8906Q44.0684 11.8906 44.1152 11.8906Q44.6309 11.9258 44.8477 12.0312Q45.0645 12.1367 45.123 12.5469Q45.1934 13.0391 45.1934 13.7656Q45.1934 14.4922 45.1699 15.0547Q45.1699 15.5703 45.0645 15.7871Q44.959 16.0039 44.502 16.0508Q44.0566 16.1094 43.3184 16.1328Q42.3223 16.168 41.6309 16.2617Q41.1152 16.3555 40.9746 16.5137Q40.834 16.6719 40.8457 16.918Q40.8457 17.0469 40.8926 17.1348Q40.9395 17.2227 41.0977 17.2871Q41.2559 17.3516 41.584 17.4102Q41.9473 17.457 42.4629 17.4922Q42.9785 17.5273 43.4941 17.5625Q43.9043 17.5742 44.2207 17.5977Q44.748 17.6094 44.9355 17.7617Q45.123 17.9141 45.1465 18.4414Q45.1934 19.0273 45.1758 19.8652Q45.1582 20.7031 45.1348 21.2656Q45.123 21.5234 45.1172 21.6699Q45.1113 21.8164 45.0996 21.8867Q45.0879 21.957 45.082 21.9922Q45.0762 22.0273 45.0527 22.0508Q45.041 22.0859 44.9883 22.127Q44.9355 22.168 44.8066 22.2207Q44.6777 22.2734 44.4199 22.3203Q44.1621 22.3672 43.7285 22.4141Q42.8027 22.5078 41.4199 22.4727Q40.0371 22.4375 38.9121 22.0625Q37.8457 21.6758 37.3066 20.9082Q36.7676 20.1406 36.6035 19.0742Q36.4746 18.3477 36.4746 17.5625ZM49.459 5.26953Q50.8887 5.25781 52.248 5.59766Q53.4199 5.85547 54.252 6.58203Q55.084 7.30859 55.5527 8.89062Q55.9863 10.6367 55.9746 13.1035Q55.9629 15.5703 55.7988 17.2461Q55.6113 18.8633 54.5684 20.2227Q53.5254 21.582 51.9668 22.0156Q50.9121 22.2734 49.7461 22.3906Q48.5801 22.5078 47.7246 22.4961Q46.9395 22.4727 46.6055 22.4023Q46.2715 22.332 46.1543 22.2266Q46.084 22.1797 46.0371 22.0801Q45.9902 21.9805 45.9609 21.7344Q45.9316 21.4883 45.9199 21.002Q45.9082 20.5156 45.8965 19.6836Q45.8965 18.4062 45.8965 16.5781Q45.8965 14.75 45.9082 12.9688Q45.9082 11.7383 45.9082 10.7656Q45.9082 10.4609 45.9199 10.1914Q45.9082 8.75 45.9316 8.09961Q45.9551 7.44922 46.0371 7.0625Q46.1191 6.57031 46.4414 6.14258Q46.7637 5.71484 47.5957 5.48047Q48.3574 5.26953 49.459 5.26953ZM50.4082 8.75Q50.3379 8.73828 50.2734 8.86133Q50.209 8.98438 50.1738 9.3418Q50.1387 9.69922 50.1152 10.3789Q50.0801 11.75 50.0859 13.7656Q50.0918 15.7812 50.1152 17.1875Q50.1152 17.5625 50.1152 17.8379Q50.1152 18.1133 50.1211 18.3066Q50.127 18.5 50.127 18.6348Q50.127 18.7695 50.127 18.8457Q50.127 18.9219 50.127 18.9629Q50.127 19.0039 50.127 19.0215Q50.127 19.0391 50.127 19.0391Q50.127 19.0625 50.127 19.0742Q50.127 19.0859 50.1328 19.0977Q50.1387 19.1094 50.1504 19.1328Q50.1504 19.168 50.168 19.1973Q50.1855 19.2266 50.2324 19.25Q50.2793 19.2734 50.3613 19.2617Q50.4551 19.25 50.584 19.1387Q50.7129 19.0273 50.8711 18.7109Q51.0293 18.3945 51.1816 17.75Q51.4277 16.707 51.6094 15.1895Q51.791 13.6719 51.8262 12.4062Q51.8496 11.2227 51.7207 10.5605Q51.5918 9.89844 51.3809 9.55859Q51.1699 9.19531 50.9473 9.01953Q50.7246 8.84375 50.5371 8.77344Q50.4668 8.75 50.4082 8.75Z"/>
		<path fill="#333" transform="translate(38 43)" d="M7.85742 33.082Q8.61914 33.082 9.2168 33.1055Q9.56836 33.1055 9.73828 33.2227Q9.9082 33.3398 9.9375 33.8086Q9.9668 34.2773 9.9082 35.332Q9.81445 37.0664 9.63281 39.5859Q9.45117 42.1055 9.32227 43.875Q9.31055 43.9688 9.29883 44.0625Q9.2168 45.0469 9.20508 45.5156Q9.19336 45.9844 9.29883 46.1367Q9.4043 46.2891 9.67383 46.3125Q10.1309 46.3711 10.8574 46.3828Q11.584 46.3945 12.1699 46.3945Q12.7559 46.3945 13.0898 46.4473Q13.4238 46.5 13.5645 46.793Q13.7168 47.1094 13.7461 47.6426Q13.7754 48.1758 13.7754 48.668Q13.7754 48.9961 13.7285 49.2656Q13.6816 49.5352 13.4414 49.7402Q13.2012 49.9453 12.6621 50.0625Q11.7715 50.2266 10.4062 50.2266Q9.04102 50.2266 7.89258 50.1562Q7.16602 50.1445 6.68555 49.9629Q6.20508 49.7812 5.91211 49.1484Q5.61914 48.5156 5.49023 47.1211Q5.29102 44.8359 5.33203 41.543Q5.37305 38.25 5.47852 35.9883Q5.53711 34.6172 5.63086 34.0078Q5.72461 33.3984 5.91797 33.2461Q6.11133 33.0938 6.47461 33.1055Q7.0957 33.082 7.85742 33.082ZM19.5996 32.8477Q19.7402 32.8594 19.8926 32.8711Q22.2246 33.0703 23.5957 35.2617Q24.2168 36.4688 24.375 38.0742Q24.5332 39.6797 24.4512 41.3203Q24.3223 44.6484 23.7012 46.875Q23.127 48.9492 21.8379 49.6992Q20.3965 50.4961 18.6973 50.3555Q17.0918 50.2266 16.0723 49.2188Q15.0996 48.2695 14.7832 46.125Q14.4785 43.8164 14.6426 40.582Q14.666 37.2539 15.791 34.9102Q17.1738 32.7656 19.5996 32.8477ZM19.5996 37.2773Q18.8027 37.2773 18.334 38.3555Q17.9473 39.5273 17.9238 41.1797Q17.8418 42.7852 17.9355 43.9219Q18.0176 44.9883 18.334 45.4336Q18.6621 45.9258 19.1895 45.9609Q19.752 46.0078 20.2324 45.5977Q20.6543 45.1992 20.8652 44.168Q21.0762 43.0547 21.1465 41.4141Q21.2637 39.6914 20.9004 38.4258Q20.4316 37.2891 19.5996 37.2773ZM29.0215 33.0352Q30.4043 33.0352 31.7168 33.3633Q32.8535 33.6445 33.6562 34.248Q34.459 34.8516 34.9043 35.8711Q35.3496 36.9375 35.4375 38.2676Q35.5254 39.5977 35.3145 40.8047Q34.9746 43.0781 33.0996 44.4375Q32.127 45.1172 31.4062 45.3398Q30.6855 45.5625 30.1699 45.6211Q29.6543 45.668 29.4902 45.7969Q29.3262 45.9258 29.3262 46.418Q29.3145 46.9102 29.3379 47.625Q29.3496 48.5625 29.3262 49.2422Q29.3027 49.793 29.1445 49.9805Q28.9863 50.168 28.5879 50.2148Q28.1543 50.2852 27.5859 50.332Q27.0176 50.3789 26.6309 50.3789Q26.3262 50.3789 26.2031 50.3379Q26.0801 50.2969 25.9863 50.2266Q25.9512 50.2031 25.9043 50.1797Q25.9043 50.168 25.8926 50.168Q25.8223 50.1328 25.7285 50.0332Q25.6348 49.9336 25.541 49.6875Q25.4473 49.4414 25.377 48.9492Q25.3066 48.457 25.2715 47.6367Q25.2363 46.1016 25.3008 43.8809Q25.3652 41.6602 25.459 39.6914Q25.4824 39.0703 25.5059 38.5547Q25.5293 37.6992 25.5527 37.1016Q25.5879 36.1406 25.6172 35.6426Q25.6465 35.1445 25.7168 34.8164Q25.7988 34.3242 26.1094 33.9023Q26.4199 33.4805 27.2168 33.2461Q27.9551 33.0469 29.0215 33.0352ZM29.4668 36.4688Q29.373 36.4688 29.3086 36.6504Q29.2441 36.832 29.2207 37.3359Q29.1855 38.0859 29.1914 39.1875Q29.1973 40.2891 29.209 41.0625Q29.2207 41.4258 29.2266 41.6367Q29.2324 41.8477 29.2324 41.959Q29.2324 42.0703 29.2383 42.1172Q29.2441 42.1641 29.2441 42.1992Q29.2559 42.2695 29.291 42.3223Q29.3262 42.375 29.4551 42.3633Q29.584 42.3398 29.7949 42.1758Q30.0059 42.0117 30.2402 41.6133Q30.4629 41.2031 30.6387 40.5996Q30.8145 39.9961 30.8496 39.3516Q30.873 38.0508 30.4277 37.2773Q30.2285 36.9258 30.0117 36.7559Q29.7949 36.5859 29.6191 36.5156Q29.5371 36.4688 29.4668 36.4688ZM36.2988 45.5625Q36.3105 44.0156 36.7559 43.0195Q37.1074 42.3398 37.5879 42.123Q38.0684 41.9062 38.4668 41.8711Q38.584 41.8477 38.6777 41.8359Q38.9707 41.8008 39.0586 41.7715Q39.1465 41.7422 38.959 41.7188Q38.9238 41.7188 38.877 41.707Q38.5957 41.6953 38.1094 41.5371Q37.623 41.3789 37.1777 40.875Q36.2285 39.6328 36.3926 37.1836Q36.4746 35.9766 36.9961 34.916Q37.5176 33.8555 38.6191 33.4102Q39.6855 33.0703 41.0156 33.2344Q42.3457 33.3984 43.3535 33.6328Q43.5293 33.6797 43.6934 33.7031Q43.9395 33.7617 44.127 33.7969Q44.5137 33.8672 44.7012 33.9258Q44.8887 33.9844 44.9414 34.1133Q44.9941 34.2422 44.9941 34.5Q45.0059 34.957 45 35.6777Q44.9941 36.3984 44.9824 37.0195Q44.9824 37.1367 44.9824 37.2422Q44.9941 37.8047 44.8711 38.0449Q44.748 38.2852 44.209 38.3555Q43.6582 38.4258 42.8145 38.4258Q41.7715 38.4258 41.0801 38.5547Q40.7051 38.6484 40.5996 38.8945Q40.4941 39.1406 40.6113 39.3633Q40.7285 39.5859 41.0215 39.6328Q41.7598 39.7266 42.8496 39.8086Q43.4238 39.8438 43.8457 39.8906Q43.8926 39.8906 43.9395 39.8906Q44.4551 39.9258 44.6719 40.0312Q44.8887 40.1367 44.9473 40.5469Q45.0176 41.0391 45.0176 41.7656Q45.0176 42.4922 44.9941 43.0547Q44.9941 43.5703 44.8887 43.7871Q44.7832 44.0039 44.3262 44.0508Q43.8809 44.1094 43.1426 44.1328Q42.1465 44.168 41.4551 44.2617Q40.9395 44.3555 40.7988 44.5137Q40.6582 44.6719 40.6699 44.918Q40.6699 45.0469 40.7168 45.1348Q40.7637 45.2227 40.9219 45.2871Q41.0801 45.3516 41.4082 45.4102Q41.7715 45.457 42.2871 45.4922Q42.8027 45.5273 43.3184 45.5625Q43.7285 45.5742 44.0449 45.5977Q44.5723 45.6094 44.7598 45.7617Q44.9473 45.9141 44.9707 46.4414Q45.0176 47.0273 45 47.8652Q44.9824 48.7031 44.959 49.2656Q44.9473 49.5234 44.9414 49.6699Q44.9355 49.8164 44.9238 49.8867Q44.9121 49.957 44.9062 49.9922Q44.9004 50.0273 44.877 50.0508Q44.8652 50.0859 44.8125 50.127Q44.7598 50.168 44.6309 50.2207Q44.502 50.2734 44.2441 50.3203Q43.9863 50.3672 43.5527 50.4141Q42.627 50.5078 41.2441 50.4727Q39.8613 50.4375 38.7363 50.0625Q37.6699 49.6758 37.1309 48.9082Q36.5918 48.1406 36.4277 47.0742Q36.2988 46.3477 36.2988 45.5625ZM46.916 32.9414Q47.1855 32.9297 47.666 32.9297Q48.6504 32.9297 50.0918 32.9648Q51.5332 33 52.6699 33.0234Q52.7637 33.0352 52.8574 33.0352Q53.877 33.0352 54.2285 33.1465Q54.5801 33.2578 54.6387 33.7383Q54.709 34.2773 54.709 35.0859Q54.709 35.8945 54.6738 36.5273Q54.6738 36.9141 54.6328 37.207Q54.5918 37.5 54.4512 37.8926Q54.3105 38.2852 53.9941 38.9531Q53.4668 40.0547 52.6758 41.5723Q51.8848 43.0898 51.2637 44.1797Q51.0293 44.5664 50.8652 44.8359Q50.5137 45.3867 50.4727 45.5801Q50.4316 45.7734 50.7363 45.8203Q51.1582 45.8906 51.8848 45.8965Q52.6113 45.9023 53.209 45.9023Q53.2441 45.9023 53.291 45.9023Q53.8184 45.8789 54.0117 45.9785Q54.2051 46.0781 54.2285 46.5352Q54.2754 47.0391 54.252 47.8066Q54.2285 48.5742 54.1699 49.1602Q54.1465 49.6992 53.8711 49.9102Q53.5957 50.1211 52.5996 50.1797Q51.498 50.2383 49.9219 50.2266Q48.3457 50.2148 47.2441 50.1797Q46.5762 50.1562 46.2656 50.0977Q45.9551 50.0391 45.8613 49.8984Q45.7676 49.7578 45.7559 49.4766Q45.7324 49.1484 45.7324 48.6855Q45.7324 48.2227 45.7324 47.7656Q45.7324 47.4375 45.7324 47.168Q45.7324 47.1445 45.7324 47.1211Q45.7207 46.8164 45.7617 46.5527Q45.8027 46.2891 45.9844 45.8965Q46.166 45.5039 46.5762 44.8125Q47.2676 43.6992 48.2637 42.1641Q49.3301 40.5117 50.0332 39.3516Q50.6543 38.3438 50.625 38.0508Q50.5957 37.7578 50.0684 37.7461Q49.541 37.6992 48.7793 37.6875Q47.959 37.6875 47.3262 37.6289Q46.7637 37.5938 46.5234 37.3828Q46.2832 37.1719 46.2246 36.6094Q46.1543 35.9766 46.1719 35.1445Q46.1895 34.3125 46.2129 33.7617Q46.2246 33.5859 46.2305 33.4688Q46.2363 33.3516 46.2422 33.2754Q46.248 33.1992 46.248 33.1523Q46.248 33.1055 46.2539 33.082Q46.2598 33.0586 46.2656 33.0469Q46.2715 33.0352 46.2832 33.0352Q46.2832 33.0234 46.3008 33.0176Q46.3184 33.0117 46.3535 33Q46.3887 32.9883 46.4531 32.9766Q46.5176 32.9648 46.6289 32.959Q46.7402 32.9531 46.916 32.9414Z"/>
		<path fill="#333" transform="translate(46.5 42)" d="M3.36816 4L3.36816 1.15234L2.51172 1.15234L1.79199 3.17969L1.07227 1.15234L0.219727 1.15234L0.219727 4L0.736328 4L0.736328 1.64355L1.56445 4L2.02441 4L2.84766 1.64355L2.84766 4L3.36816 4ZM4.43951 4.04004C4.79205 4.04004 5.00006 3.91602 5.11627 3.67969C5.11627 3.83984 5.14362 3.92383 5.20416 4L5.67194 4C5.6319 3.93164 5.60748 3.75195 5.60748 3.47168L5.60748 2.58789C5.60748 2.16797 5.34381 1.89648 4.70807 1.89648C4.07233 1.89648 3.80768 2.16797 3.80768 2.58789L4.32037 2.58789C4.3399 2.36816 4.47174 2.26367 4.71198 2.26367C4.96783 2.26367 5.09186 2.38379 5.09186 2.58789C5.09186 2.69629 5.03229 2.75195 4.82428 2.77246L4.40436 2.80762C3.88385 2.84766 3.69635 3.09961 3.69635 3.41602C3.69635 3.7959 3.95612 4.04004 4.43951 4.04004ZM4.59186 3.68848C4.32819 3.68848 4.21198 3.56445 4.21198 3.37988C4.21198 3.23242 4.31549 3.12402 4.57623 3.09961L4.82037 3.08008C4.96002 3.06836 5.05573 3.04395 5.09186 3L5.09186 3.14355C5.09186 3.44434 4.91217 3.68848 4.59186 3.68848ZM6.81155 4.04004C7.15628 4.04004 7.36038 3.8877 7.47171 3.64844L7.47171 4L7.9639 4L7.9639 1.15234L7.44827 1.15234L7.44827 2.24805C7.33206 2.02441 7.12405 1.89648 6.81155 1.89648C6.25589 1.89648 5.90433 2.29199 5.90433 2.96777C5.90433 3.64355 6.25589 4.04004 6.81155 4.04004ZM6.93167 3.64844C6.62796 3.64844 6.41995 3.44043 6.41995 2.96777C6.41995 2.49609 6.62796 2.28809 6.93167 2.28809C7.24026 2.28809 7.44827 2.49609 7.44827 2.96777C7.44827 3.44043 7.24026 3.64844 6.93167 3.64844ZM9.30815 4.04004C9.86382 4.04004 10.1802 3.77246 10.2681 3.34766L9.79155 3.34766C9.73198 3.55957 9.56401 3.68848 9.30815 3.68848C8.99174 3.68848 8.79155 3.49609 8.77592 3.07617L10.3042 3.07617C10.3082 3.02832 10.3121 2.98828 10.3121 2.94434C10.3121 2.33594 9.95171 1.89648 9.28374 1.89648C8.61967 1.89648 8.2603 2.33203 8.2603 2.96777C8.2603 3.62012 8.63628 4.04004 9.30815 4.04004ZM9.28374 2.24805C9.56792 2.24805 9.75151 2.41211 9.79546 2.74023L8.77592 2.74023C8.81987 2.41211 8.99956 2.24805 9.28374 2.24805ZM14.0439 4L14.7519 1.93555L14.2119 1.93555L13.7402 3.41211L13.332 1.93555L12.8681 1.93555L12.4599 3.41211L11.9882 1.93555L11.4482 1.93555L12.1562 4L12.704 4L13.0995 2.62793L13.496 4L14.0439 4ZM15.4839 4L15.4839 1.93555L14.9683 1.93555L14.9683 4L15.4839 4ZM15.2281 1.62793C15.4195 1.62793 15.524 1.51172 15.524 1.36035C15.524 1.20801 15.4195 1.0918 15.2281 1.0918C15.0357 1.0918 14.9283 1.20801 14.9283 1.36035C14.9283 1.51172 15.0357 1.62793 15.2281 1.62793ZM16.6601 4.01953C16.7519 4.01953 16.9159 4.00781 16.9999 4L16.9999 3.65234L16.7841 3.65625C16.62 3.65625 16.5517 3.59961 16.5517 3.44043L16.5517 2.30371L16.9999 2.30371L16.9999 1.93555L16.5517 1.93555L16.5517 1.31152L16.0361 1.31152L16.0361 1.93555L15.7118 1.93555L15.7118 2.30371L16.0361 2.30371L16.0361 3.41992C16.0361 3.87598 16.1913 4.01953 16.6601 4.01953ZM19.1233 4L19.1233 2.63574C19.1233 2.13574 18.888 1.89648 18.4153 1.89648C18.1038 1.89648 17.9202 2.03223 17.8079 2.23242L17.8079 1.15234L17.2923 1.15234L17.2923 4L17.8079 4L17.8079 2.84766C17.8079 2.51172 17.9837 2.31641 18.2561 2.31641C18.5081 2.31641 18.6077 2.45605 18.6077 2.73633L18.6077 4L19.1233 4ZM23.3479 4L23.3479 2.63574C23.3479 2.13574 23.1399 1.89648 22.716 1.89648C22.4319 1.89648 22.2278 2.04395 22.1233 2.28418C22.0393 2.02441 21.8518 1.89648 21.552 1.89648C21.2678 1.89648 21.092 2.05176 20.9914 2.27246L20.9914 1.93555L20.5002 1.93555L20.5002 4L20.9953 4L20.9953 2.83203C20.9953 2.49609 21.1682 2.31641 21.384 2.31641C21.5793 2.31641 21.6721 2.44434 21.6721 2.71973L21.6721 4L22.1721 4L22.1721 2.83203C22.1721 2.49609 22.344 2.31641 22.5598 2.31641C22.76 2.31641 22.8518 2.44434 22.8518 2.71973L22.8518 4L23.3479 4ZM24.4273 4.04004C24.7681 4.04004 24.9517 3.88379 25.064 3.66406L25.064 4L25.5552 4L25.5552 1.93555L25.0396 1.93555L25.0396 3.08789C25.0396 3.42383 24.8638 3.62012 24.5914 3.62012C24.3394 3.62012 24.2398 3.48047 24.2398 3.2002L24.2398 1.93555L23.7242 1.93555L23.7242 3.2998C23.7242 3.7998 23.9556 4.04004 24.4273 4.04004ZM26.8872 4.04004C27.5318 4.04004 27.8599 3.64355 27.8599 3.2002L27.3755 3.2002C27.3355 3.50781 27.1597 3.64844 26.8872 3.64844C26.5601 3.64844 26.3677 3.42383 26.3677 2.96777C26.3677 2.51172 26.5601 2.28809 26.8872 2.28809C27.1997 2.28809 27.3394 2.47559 27.3755 2.71973L27.8599 2.71973C27.8599 2.31641 27.5552 1.89648 26.8872 1.89648C26.228 1.89648 25.8521 2.32031 25.8521 2.96777C25.8521 3.62012 26.228 4.04004 26.8872 4.04004ZM29.9472 4L29.9472 2.63574C29.9472 2.13574 29.7118 1.89648 29.2392 1.89648C28.9276 1.89648 28.744 2.03223 28.6317 2.23242L28.6317 1.15234L28.1161 1.15234L28.1161 4L28.6317 4L28.6317 2.84766C28.6317 2.51172 28.8075 2.31641 29.08 2.31641C29.3319 2.31641 29.4315 2.45605 29.4315 2.73633L29.4315 4L29.9472 4ZM31.8397 4L31.8397 1.15234L31.3241 1.15234L31.3241 4L31.8397 4ZM33.1838 4.04004C33.8596 4.04004 34.2356 3.62012 34.2356 2.96777C34.2356 2.32031 33.8596 1.89648 33.1838 1.89648C32.512 1.89648 32.136 2.32031 32.136 2.96777C32.136 3.62012 32.512 4.04004 33.1838 4.04004ZM33.1838 3.64844C32.844 3.64844 32.6516 3.42383 32.6516 2.96777C32.6516 2.51172 32.844 2.28809 33.1838 2.28809C33.5276 2.28809 33.72 2.51172 33.72 2.96777C33.72 3.42383 33.5276 3.64844 33.1838 3.64844ZM35.6396 4L36.4032 1.93555L35.8632 1.93555L35.3271 3.54785L34.7919 1.93555L34.2519 1.93555L35.0155 4L35.6396 4ZM37.4678 4.04004C38.0235 4.04004 38.3399 3.77246 38.4277 3.34766L37.9512 3.34766C37.8916 3.55957 37.7236 3.68848 37.4678 3.68848C37.1514 3.68848 36.9512 3.49609 36.9356 3.07617L38.4639 3.07617C38.4678 3.02832 38.4717 2.98828 38.4717 2.94434C38.4717 2.33594 38.1113 1.89648 37.4434 1.89648C36.7793 1.89648 36.4199 2.33203 36.4199 2.96777C36.4199 3.62012 36.7959 4.04004 37.4678 4.04004ZM37.4434 2.24805C37.7276 2.24805 37.9111 2.41211 37.9551 2.74023L36.9356 2.74023C36.9795 2.41211 37.1592 2.24805 37.4434 2.24805ZM40.9193 4.04004C41.476 4.04004 41.8275 3.64355 41.8275 2.96777C41.8275 2.29199 41.476 1.89648 40.9193 1.89648C40.6078 1.89648 40.3998 2.02441 40.2836 2.24805L40.2836 1.15234L39.768 1.15234L39.768 4L40.2592 4L40.2592 3.64844C40.3715 3.8877 40.5717 4.04004 40.9193 4.04004ZM40.7953 3.64844C40.4916 3.64844 40.2836 3.44043 40.2836 2.96777C40.2836 2.49609 40.4916 2.28809 40.7953 2.28809C41.1039 2.28809 41.3119 2.49609 41.3119 2.96777C41.3119 3.44043 41.1039 3.64844 40.7953 3.64844ZM42.0313 4.78418L42.2354 4.78418C42.7393 4.78418 43.0118 4.57617 43.2598 3.9082L43.9952 1.93555L43.4551 1.93555L42.919 3.59961L42.3838 1.93555L41.8438 1.93555L42.5791 3.9082C42.6075 3.98047 42.6192 4.04785 42.6192 4.1084C42.6192 4.2998 42.4795 4.41602 42.2393 4.41602L42.0313 4.41602L42.0313 4.78418Z"/>
	</g>
</svg>
