<?xml version="1.0" encoding="utf-8" ?>
<svg xmlns="http://www.w3.org/2000/svg" xmlns:xlink="http://www.w3.org/1999/xlink" width="140" height="140">
	<clipPath id="cl_3">
		<rect width="140" height="140"/>
	</clipPath>
	<g clip-path="url(#cl_3)">
		<path transform="translate(24.5 29)" d="M45.5 32.5376Q50.1997 32.5376 53.5835 28.3455Q56.9673 24.1533 56.9673 18.1753Q56.9673 12.1597 53.5835 7.98633Q50.1997 3.81299 45.5 3.81299Q40.8003 3.81299 37.4165 7.98633Q34.0327 12.1597 34.0327 18.1753Q34.0327 24.1533 37.4165 28.3455Q40.8003 32.5376 45.5 32.5376ZM37.6421 66.6387Q38.5068 66.6387 39.8228 66.1123Q42.2666 65.1348 43.6953 62.9165Q42.6426 61.939 40.8003 61.939Q39.8228 61.939 38.582 62.2773Q35.8374 63.0669 35.8374 65.022Q35.8374 66.6387 37.6421 66.6387ZM39.3716 25.1685Q38.77 25.1685 38.6196 24.6045Q37.6045 21.6343 37.6045 18.4009Q37.6045 16.897 37.8301 15.3931Q38.4316 11.2573 41.4395 7.83594Q41.665 7.61035 42.041 7.61035Q42.7178 7.61035 42.7178 8.3623Q42.7178 8.62549 42.5298 8.85107Q39.146 12.7612 39.146 18.4385Q39.146 21.4087 40.0859 24.4165Q40.0859 24.6421 40.0483 24.7173Q39.7852 25.1685 39.3716 25.1685ZM43.0938 38.6284Q45.6128 38.6284 47.1543 38.1021Q47.2295 38.0645 47.2295 37.9517Q47.2295 37.8389 47.0791 37.5381Q47.0415 37.5381 47.0415 37.5005Q46.1768 35.9966 46.064 34.0415L45.5 34.0415Q44.5601 34.0415 43.6953 33.8911Q43.3569 35.5078 43.0186 36.4102Q42.8306 36.8613 41.9658 38.5908Q42.4546 38.6284 43.0938 38.6284ZM37.1533 87.1294Q36.3638 87.1294 36.3638 86.3022Q36.3638 85.8511 36.8901 85.6255Q39.8228 84.3472 42.0786 80.3994Q44.3345 76.4517 45.1992 71.8647Q45.5 70.1353 45.5 68.5562Q45.5 65.8867 44.6353 64.1948Q43.0562 66.4507 40.3867 67.5034Q38.77 68.1426 37.6045 68.1426Q36.2886 68.1426 35.4614 67.4282Q34.2959 66.4883 34.2959 65.022Q34.2959 64.5708 34.4087 64.082Q35.0854 61.5254 38.2061 60.7358Q39.6348 60.3975 40.8379 60.3975Q43.0562 60.3975 44.4473 61.6006Q46.2144 57.7656 46.2144 51.8252Q46.2144 49.8325 45.9888 47.8398Q45.4624 43.4033 44.4849 40.0947L42.229 40.0571Q40.1611 40.0571 40.1611 39.042Q40.1611 38.5532 40.8003 37.4629Q41.7402 35.9214 42.1914 33.5151Q38.8828 32.5376 36.2886 29.3418Q32.5288 24.7173 32.5288 18.1753Q32.5288 14.9043 33.5251 12.0281Q34.5215 9.15186 36.2886 6.97119Q38.0557 4.79053 40.4243 3.53101Q42.793 2.27148 45.5 2.27148Q48.207 2.27148 50.5757 3.53101Q52.9443 4.79053 54.7114 6.97119Q56.4785 9.15186 57.4749 12.0281Q58.4712 14.9043 58.4712 18.1753Q58.4712 24.7173 54.7114 29.3418Q51.7036 33.064 47.5679 33.8535Q47.7559 35.6206 48.4702 36.7861Q48.9214 37.5757 48.9214 38.1772Q48.9214 39.5308 46.0264 39.9443Q47.7183 45.5088 47.7183 51.9004Q47.7183 58.5928 45.5752 62.7661Q47.0415 64.9092 47.0415 68.5186Q47.0415 70.248 46.7031 72.1655Q45.8008 77.0532 43.2629 81.3394Q40.7251 85.6255 37.4165 87.0918Q37.3037 87.1294 37.1533 87.1294Z"/>
		<path fill="#CB4A84" transform="translate(70 48)" d="M0 -17C7.45584 -17 13.5 -9.38884 13.5 0C13.5 9.38884 7.45584 17 0 17C-7.45584 17 -13.5 9.38884 -13.5 0C-13.5 -9.38884 -7.45584 -17 0 -17Z"/>
		<path fill="#CB4A84" transform="matrix(0.996195 -0.0871557 0.0871557 0.996195 69 64)" d="M-3.28078e-07 -6.5L-6.5 6.5L6.5 6.5L-3.28078e-07 -6.5Z"/>
	</g>
</svg>
