<?xml version="1.0" encoding="utf-8" ?>
<svg xmlns="http://www.w3.org/2000/svg" xmlns:xlink="http://www.w3.org/1999/xlink" width="140" height="140">
	<clipPath id="cl_3">
		<rect width="140" height="140"/>
	</clipPath>
	<g clip-path="url(#cl_3)">
		<path fill="#CB4A84" transform="translate(70 68)" d="M0 -25.5C13.8071 -25.5 25 -14.0833 25 0C25 14.0833 13.8071 25.5 0 25.5C-13.8071 25.5 -25 14.0833 -25 0C-25 -14.0833 -13.8071 -25.5 0 -25.5Z"/>
		<path transform="matrix(0.906308 -0.422618 0.422618 0.906308 37.6658 67.1517)" d="M20.7322 5.84277Q20.7322 7.07666 19.8462 7.8374Q18.9602 8.59814 17.5222 8.59814Q16.0842 8.59814 15.1982 7.84668Q14.3123 7.09521 14.3123 5.84277L16.2141 5.84277Q16.2141 6.42725 16.562 6.74731Q16.9099 7.06738 17.5222 7.06738Q18.1252 7.06738 18.4685 6.74731Q18.8118 6.42725 18.8118 5.84277L20.7322 5.84277Z"/>
		<path transform="matrix(0.906308 -0.422618 0.422618 0.906308 37.6658 67.1517)" d="M31.9763 14.3037Q31.9763 16.0761 30.6485 17.4337Q29.318 18.7939 27.4768 18.7939Q25.6833 18.7939 24.353 17.4538Q23.0237 16.1145 23.0237 14.3037L23.0237 14.0068L24.4153 14.0068L24.4153 14.3037Q24.4153 15.536 25.3405 16.4697Q26.2646 17.4023 27.4768 17.4023Q28.7269 17.4023 29.6558 16.4734Q30.5847 15.5445 30.5847 14.3037L30.5847 14.0068L31.9763 14.0068L31.9763 14.3037ZM31.3826 14.3037L31.6794 14.3037L31.6794 14.6006L30.8816 14.6006L30.8816 14.3037L31.1785 14.3037Q31.1785 15.7905 30.0756 16.8933Q28.9728 17.9961 27.4768 17.9961Q26.0171 17.9961 24.9188 16.8877Q23.8215 15.7804 23.8215 14.3037L24.1184 14.3037L24.1184 14.6006L23.3206 14.6006L23.3206 14.3037L23.6174 14.3037Q23.6174 15.8699 24.7744 17.0355Q25.9305 18.2002 27.4768 18.2002Q29.0682 18.2002 30.224 17.0185Q31.3826 15.834 31.3826 14.3037ZM31.6794 14.3037Q31.6794 15.9551 30.4363 17.2261Q29.1931 18.4971 27.4768 18.4971Q25.8069 18.4971 24.5637 17.2446Q23.3206 15.9922 23.3206 14.3037L24.1184 14.3037Q24.1184 15.6582 25.1296 16.6787Q26.1409 17.6992 27.4768 17.6992Q28.8499 17.6992 29.8657 16.6833Q30.8816 15.6675 30.8816 14.3037L31.6794 14.3037Z"/>
		<path transform="matrix(0.906308 -0.422618 0.422618 0.906308 37.6658 67.1517)" d="M40.6414 5.84277Q40.6414 7.07666 39.7554 7.8374Q38.8694 8.59814 37.4314 8.59814Q35.9934 8.59814 35.1074 7.84668Q34.2214 7.09521 34.2214 5.84277L36.1233 5.84277Q36.1233 6.42725 36.4712 6.74731Q36.8191 7.06738 37.4314 7.06738Q38.0344 7.06738 38.3777 6.74731Q38.7209 6.42725 38.7209 5.84277L40.6414 5.84277Z"/>
		<ellipse fill="#EEA3C5" transform="matrix(0.819152 -0.573576 0.573576 0.819152 81 64)" cx="0" cy="0" rx="4.5" ry="3"/>
		<ellipse fill="#EEA3C5" transform="matrix(0.819152 -0.573576 0.573576 0.819152 58 79)" cx="0" cy="0" rx="4.5" ry="3"/>
	</g>
</svg>
