<?xml version="1.0" encoding="utf-8" ?>
<svg xmlns="http://www.w3.org/2000/svg" xmlns:xlink="http://www.w3.org/1999/xlink" width="140" height="140">
	<clipPath id="cl_5">
		<rect width="140" height="140"/>
	</clipPath>
	<g clip-path="url(#cl_5)">
		<path fill="#CB4A84" transform="translate(70 69)" d="M0 -25.5C13.8071 -25.5 25 -14.0833 25 0C25 14.0833 13.8071 25.5 0 25.5C-13.8071 25.5 -25 14.0833 -25 0C-25 -14.0833 -13.8071 -25.5 0 -25.5Z"/>
		<path transform="matrix(0.992546 0.121869 -0.121869 0.992546 43.9955 48.8498)" d="M13.0984 12.8936Q13.0984 11.9287 13.7107 11.3442Q14.323 10.7598 15.2878 10.7598Q16.2898 10.7598 16.8882 11.335Q17.4865 11.9102 17.5051 12.8472L17.5051 13.2461Q17.5051 14.2017 16.8974 14.7815Q16.2898 15.3613 15.3064 15.3613Q14.3322 15.3613 13.7153 14.7861Q13.0984 14.2109 13.0984 13.2183L13.0984 12.8936Z"/>
		<path transform="matrix(0.992546 0.121869 -0.121869 0.992546 43.9955 48.8498)" d="M27.0144 16.5024C28.3086 16.5024 29.8254 16.238 30.8552 15.802L30.8552 14.0347C29.5981 14.2991 28.5544 14.3965 27.6638 14.3965C26.6154 14.3965 26.2165 14.1089 26.2165 13.1394L24.1477 13.1394C24.1477 15.4587 25.0197 16.5024 27.0144 16.5024Z"/>
		<path transform="matrix(0.992546 0.121869 -0.121869 0.992546 43.9955 48.8498)" d="M37.5784 12.8936Q37.5784 11.9287 38.1907 11.3442Q38.803 10.7598 39.7679 10.7598Q40.7698 10.7598 41.3682 11.335Q41.9666 11.9102 41.9851 12.8472L41.9851 13.2461Q41.9851 14.2017 41.3775 14.7815Q40.7698 15.3613 39.7864 15.3613Q38.8123 15.3613 38.1953 14.7861Q37.5784 14.2109 37.5784 13.2183L37.5784 12.8936Z"/>
		<ellipse fill="#EEA3C5" transform="matrix(0.961262 0.275637 -0.275637 0.961262 81 75)" cx="0" cy="0" rx="4.5" ry="3"/>
		<ellipse fill="#EEA3C5" transform="matrix(0.956305 0.292372 -0.292372 0.956305 54 71)" cx="0" cy="0" rx="4.5" ry="3"/>
	</g>
</svg>
